<svg width="7" height="12" viewBox="0 0 7 12" fill="none" xmlns="http://www.w3.org/2000/svg">
<path d="M1.01514 11.9517C1.28076 11.9517 1.50488 11.8604 1.6875 11.6777L6.65967 6.75537C6.89209 6.53125 7 6.29053 7 6C7 5.70947 6.89209 5.46045 6.66797 5.24463L1.6875 0.322266C1.50488 0.139648 1.28076 0.0483398 1.01514 0.0483398C0.483887 0.0483398 0.0522461 0.47168 0.0522461 1.00293C0.0522461 1.26855 0.160156 1.50928 0.351074 1.7085L4.71729 6.0083L0.351074 10.2998C0.160156 10.4907 0.0522461 10.7314 0.0522461 10.9971C0.0522461 11.5283 0.483887 11.9517 1.01514 11.9517Z" fill="#8E8E93"/>
</svg>
