<svg width="12" height="15" viewBox="0 0 12 15" fill="none" xmlns="http://www.w3.org/2000/svg">
<path d="M5.87135 0.247406C5.25835 0.247406 4.84968 0.7075 4.84968 1.38669V9.33974L4.91098 10.9245L3.63048 9.33243L2.07754 7.66733C1.89364 7.47015 1.65525 7.32409 1.34875 7.32409C0.797047 7.32409 0.374756 7.75497 0.374756 8.38303C0.374756 8.66785 0.483734 8.93807 0.69488 9.17177L5.11531 13.9188C5.30603 14.1233 5.59209 14.2474 5.87135 14.2474C6.15061 14.2474 6.43668 14.1233 6.62739 13.9188L11.0546 9.17177C11.2658 8.93807 11.3748 8.66785 11.3748 8.38303C11.3748 7.75497 10.9525 7.32409 10.4008 7.32409C10.0943 7.32409 9.85587 7.47015 9.66516 7.66733L8.11222 9.33243L6.83172 10.9245L6.89983 9.33974V1.38669C6.89983 0.7075 6.48435 0.247406 5.87135 0.247406Z" fill="#8E8E93"/>
</svg>
