<svg width="10" height="17" viewBox="0 0 10 17" fill="none" xmlns="http://www.w3.org/2000/svg">
<path d="M1.69505 11.2877C2.5223 11.2877 2.97648 10.7775 3.00081 9.89926L3.1468 2.08745C3.15491 1.97035 3.16302 1.8449 3.16302 1.75289C3.16302 0.807782 2.58719 0.247406 1.69505 0.247406C0.80292 0.247406 0.218978 0.807782 0.218978 1.75289C0.218978 1.8449 0.227088 1.97035 0.227088 2.08745L0.381184 9.89926C0.413625 10.7775 0.859692 11.2877 1.69505 11.2877ZM8.32117 11.2877C9.14842 11.2877 9.61071 10.7775 9.63504 9.89926L9.78102 2.08745C9.78102 1.97035 9.78913 1.8449 9.78913 1.75289C9.78913 0.807782 9.22141 0.247406 8.32117 0.247406C7.42904 0.247406 6.84509 0.807782 6.84509 1.75289C6.84509 1.8449 6.8532 1.97035 6.86131 2.08745L7.01541 9.89926C7.03974 10.7775 7.48581 11.2877 8.32117 11.2877ZM1.68694 16.2474C2.61963 16.2474 3.37388 15.5114 3.37388 14.583C3.37388 13.6546 2.61963 12.9102 1.68694 12.9102C0.754258 12.9102 0 13.6546 0 14.583C0 15.5114 0.754258 16.2474 1.68694 16.2474ZM8.32117 16.2474C9.24574 16.2474 10 15.5114 10 14.583C10 13.6546 9.24574 12.9102 8.32117 12.9102C7.38848 12.9102 6.62612 13.6546 6.62612 14.583C6.62612 15.5114 7.38848 16.2474 8.32117 16.2474Z" fill="#FF453A"/>
</svg>
